<?xml version="1.0" encoding="utf-8"?>
<!-- Generator: Adobe Illustrator 23.0.0, SVG Export Plug-In . SVG Version: 6.00 Build 0)  -->
<svg version="1.1" id="Calque_1" xmlns="http://www.w3.org/2000/svg" xmlns:xlink="http://www.w3.org/1999/xlink" x="0px" y="0px"
	 viewBox="0 0 566.93 566.93" style="enable-background:new 0 0 566.93 566.93;" xml:space="preserve">
<style type="text/css">
	.st0{fill:#111212;stroke:#FFFFFF;stroke-width:1.2173;stroke-miterlimit:10;}
	.st1{fill:#58686D;}
	.st2{fill:#ECA725;}
	.st3{fill:none;stroke:#FFFFFF;stroke-width:1.2173;stroke-miterlimit:10;}
</style>
<g>
	<path class="st0" d="M551.55,532.73c0,10.39-8.42,18.81-18.81,18.81H34.19c-10.39,0-18.81-8.42-18.81-18.81V34.19
		c0-10.39,8.42-18.81,18.81-18.81h498.54c10.39,0,18.81,8.42,18.81,18.81V532.73z"/>
	<g>
		<path class="st1" d="M375.9,17.17c-68.44,75.06-151.36,167.71-146.35,167.97c8.23,0.41,85.75,3.74,120.44,72.39
			c34.7,68.66-8.57,136.49-85.45,165.02l48.75,36.25c0,0,244.92-106.55,35.58-303.55c0,0,36.18-67.8,91.31-138.09"/>
		<path class="st2" d="M15.38,439.11c41.17-49.62,144.34-182.55,173.87-208.24c35.31-30.66,122.19-29.23,144.2,54.7
			c22.05,83.94-88.42,142.1-148.82,82.89l37.57-60.32c0,0,14.89,28.14,35.62,10.01c20.74-18.13,1.51-43.6-16.11-37.03
			c-17.6,6.6-179,198.02-213.47,214.36c-3,1.42-7.37,2.97-12.85,4.61"/>
	</g>
	<path class="st3" d="M551.55,532.73c0,10.39-8.42,18.81-18.81,18.81H34.19c-10.39,0-18.81-8.42-18.81-18.81V34.19
		c0-10.39,8.42-18.81,18.81-18.81h498.54c10.39,0,18.81,8.42,18.81,18.81V532.73z"/>
</g>
</svg>
